<svg width="16" height="13" fill="none" xmlns="http://www.w3.org/2000/svg"><path d="M16 1.543c-.6.265-1.236.44-1.886.516A3.292 3.292 0 0015.558.244a6.564 6.564 0 01-2.085.796A3.283 3.283 0 007.88 4.032 9.325 9.325 0 011.114.604a3.28 3.28 0 001.016 4.38 3.273 3.273 0 01-1.487-.41v.04a3.281 3.281 0 002.633 3.218c-.484.13-.99.15-1.483.056a3.283 3.283 0 003.066 2.279A6.59 6.59 0 010 11.525 9.29 9.29 0 005.031 13c6.039 0 9.341-4.999 9.341-9.334 0-.141-.004-.284-.01-.424A6.667 6.667 0 0016 1.544z" fill="#1F1E25"/></svg>