<svg width="20" height="34" fill="none" xmlns="http://www.w3.org/2000/svg"><path d="M17.675 0H2.325C1.047 0 0 1.033 0 2.296v29.407C0 32.966 1.047 34 2.325 34h15.35C18.953 34 20 32.968 20 31.703V2.296C20 1.033 18.953 0 17.675 0zM7.545 1.655h4.91a.28.28 0 01.282.28.28.28 0 01-.282.277h-4.91a.28.28 0 01-.282-.278.28.28 0 01.282-.279zM10 32.852a1.155 1.155 0 01-1.163-1.15c0-.635.52-1.148 1.163-1.148.642 0 1.163.513 1.163 1.149 0 .635-.52 1.149-1.163 1.149zm8.382-3.102H1.618V3.642h16.764V29.75z" fill="#565EF5"/></svg>