<svg width="114" height="19" fill="none" xmlns="http://www.w3.org/2000/svg"><path d="M35.48 18h-2.416V8.592h-2.8l-.208 1.6a56.898 56.898 0 01-.224 1.76 53.175 53.175 0 01-.24 1.68c-.085.523-.17.987-.256 1.392-.139.661-.325 1.227-.56 1.696-.224.47-.539.827-.944 1.072-.395.245-.912.368-1.552.368-.416 0-.8-.059-1.152-.176V16c.139.043.272.08.4.112.139.032.288.048.448.048.31 0 .544-.16.704-.48.17-.33.341-.944.512-1.84.064-.341.155-.875.272-1.6.117-.725.245-1.573.384-2.544.15-.981.288-2.021.416-3.12h7.216V18zm2.882-11.424h2.176v5.52c0 .267-.005.565-.016.896l-.032.976c-.01.31-.022.581-.032.816-.01.224-.021.379-.032.464h.048l5.28-8.672h2.896V18h-2.16v-5.488c0-.288.005-.603.016-.944.01-.352.021-.688.032-1.008.021-.32.037-.597.048-.832.021-.245.037-.405.048-.48h-.064L41.274 18h-2.912V6.576zm20.388 0v2h-4.8V18h-2.416V6.576h7.216zM66.37 18l-.833-2.72h-4.16L60.545 18h-2.608L61.97 6.528h2.96L68.979 18H66.37zm-1.409-4.752l-.832-2.656c-.053-.181-.122-.41-.208-.688a84.81 84.81 0 01-.255-.848 18.446 18.446 0 01-.208-.752c-.054.213-.128.48-.224.8-.086.31-.171.608-.257.896a8.192 8.192 0 01-.175.592l-.816 2.656h2.976zM75.002 18V6.576h7.217v2h-4.8v2.384h.96c1.077 0 1.957.15 2.64.448.693.299 1.205.71 1.535 1.232.331.523.496 1.12.496 1.792 0 1.13-.378 2.01-1.135 2.64-.747.619-1.942.928-3.585.928h-3.328zm2.416-1.984h.816c.737 0 1.313-.117 1.729-.352.426-.235.64-.645.64-1.232 0-.608-.23-1.008-.688-1.2-.46-.192-1.083-.288-1.873-.288h-.624v3.072zm11.18-6.928c1.173 0 2.069.256 2.688.768.629.501.944 1.275.944 2.32V18h-1.664l-.464-1.184h-.064c-.374.47-.768.81-1.184 1.024-.416.213-.987.32-1.712.32-.779 0-1.424-.224-1.936-.672-.512-.459-.768-1.157-.768-2.096 0-.928.325-1.61.976-2.048.65-.448 1.626-.693 2.928-.736l1.52-.048v-.384c0-.459-.123-.795-.368-1.008-.235-.213-.566-.32-.992-.32a4.12 4.12 0 00-1.248.192 9.278 9.278 0 00-1.216.448l-.784-1.616a6.87 6.87 0 011.552-.576 7.63 7.63 0 011.792-.208zm1.264 4.864l-.928.032c-.768.021-1.302.16-1.6.416-.299.256-.448.592-.448 1.008 0 .363.106.624.32.784.213.15.49.224.832.224.512 0 .944-.15 1.296-.448.352-.31.528-.741.528-1.296v-.72zm7.192-4.688v3.36h3.328v-3.36h2.384V18h-2.384v-3.6h-3.328V18H94.67V9.264h2.384zm13.938 0h2.624l-3.456 4.192L113.92 18h-2.704l-3.568-4.432V18h-2.384V9.264h2.384v4.24l3.344-4.24z" fill="#1F1E25"/><path d="M11.125 1H9.25L1 15.512h2.438l1.124-2.073L11.125 1z" fill="#2C36F2"/><path d="M2.125 18h15.75l-6.75-12.854L10 7.22l3.375 6.219 1.125 2.073H1L2.125 18z" fill="#2C36F2"/><path d="M14.5 15.512l-1.125-2.073H4.562l-1.125 2.073H14.5z" fill="#2C36F2"/><path d="M17.875 18L19 15.512 11.125 1 4.562 13.439h2.063L10 7.219l1.125-2.073L17.875 18z" fill="#2C36F2"/><path d="M10 7.22l-3.375 6.219h6.75L10 7.219z" fill="#2C36F2"/><path d="M17.875 18H2.125L1 15.512M17.875 18L19 15.512 11.125 1m6.75 17l-6.75-12.854L10 7.22M11.125 1H9.25L1 15.512M11.125 1L4.562 13.439M1 15.512h2.438M10 7.22l-3.375 6.219M10 7.219l3.375 6.22m-6.75 0h6.75m-6.75 0H4.562m8.813 0l1.125 2.073H3.437m1.126-2.073l-1.125 2.073" stroke="#F6F7FF"/></svg>