<svg width="31" height="35" fill="none" xmlns="http://www.w3.org/2000/svg"><path d="M25.753 24.334L15.5 34 5.247 24.334c-2.028-1.911-3.409-4.347-3.968-6.998-.56-2.652-.273-5.4.825-7.898C3.2 6.94 5.06 4.806 7.444 3.304A15.134 15.134 0 0115.5 1c2.868 0 5.671.802 8.056 2.304 2.384 1.502 4.243 3.636 5.34 6.134a12.943 12.943 0 01.825 7.898c-.56 2.651-1.94 5.087-3.968 6.998z" fill="#2C36F2"/><path d="M16.343 8.615h-1.405L8.752 18.728h1.828l.843-1.445 4.92-8.668z" fill="#2C36F2"/><path d="M9.596 20.462h11.808l-5.06-8.957-.844 1.444 2.53 4.334.844 1.445H8.752l.844 1.733z" fill="#2C36F2"/><path d="M18.874 18.728l-.844-1.445h-6.607l-.843 1.445h8.294z" fill="#2C36F2"/><path d="M21.404 20.462l.843-1.734-5.904-10.113-4.92 8.668h1.547l2.53-4.334.843-1.444 5.061 8.957z" fill="#2C36F2"/><path d="M15.5 12.95l-2.53 4.333h5.06L15.5 12.95z" fill="#2C36F2"/><path d="M21.404 20.462H9.596l-.844-1.734m12.652 1.733l.843-1.733-5.904-10.113m5.061 11.847l-5.06-8.957-.844 1.444m.843-4.334h-1.405L8.752 18.728m7.591-10.113l-4.92 8.668m-2.67 1.445h1.827m4.92-5.779l-2.53 4.334m2.53-4.334l2.53 4.334m-5.06 0h5.06m-5.06 0h-1.547m6.607 0l.844 1.445H10.58m.843-1.445l-.843 1.445m15.173 5.606L15.5 34 5.247 24.334c-2.028-1.911-3.409-4.347-3.968-6.998-.56-2.652-.273-5.4.825-7.898C3.2 6.94 5.06 4.806 7.444 3.304A15.134 15.134 0 0115.5 1c2.868 0 5.671.802 8.056 2.304 2.384 1.502 4.243 3.636 5.34 6.134a12.943 12.943 0 01.825 7.898c-.56 2.651-1.94 5.087-3.968 6.998z" stroke="#F6F7FF" stroke-width=".5"/></svg>