<svg width="134" height="24" fill="none" xmlns="http://www.w3.org/2000/svg"><path d="M44.79 23h-2.718V12.416h-3.15l-.234 1.8a63.91 63.91 0 01-.252 1.98c-.084.66-.174 1.29-.27 1.89-.096.588-.192 1.11-.288 1.566-.156.744-.366 1.38-.63 1.908-.252.528-.606.93-1.062 1.206-.444.276-1.026.414-1.746.414-.468 0-.9-.066-1.296-.198V20.75c.156.048.306.09.45.126.156.036.324.054.504.054.348 0 .612-.18.792-.54.192-.372.384-1.062.576-2.07.072-.384.174-.984.306-1.8.132-.816.276-1.77.432-2.862.168-1.104.324-2.274.468-3.51h8.118V23zm3.242-12.852h2.448v6.21c0 .3-.006.636-.018 1.008l-.036 1.098c-.012.348-.024.654-.036.918a8.082 8.082 0 01-.036.522h.054l5.94-9.756h3.258V23h-2.43v-6.174c0-.324.006-.678.018-1.062l.036-1.134c.024-.36.042-.672.054-.936.024-.276.042-.456.054-.54h-.072L51.308 23h-3.276V10.148zm22.937 0v2.25h-5.4V23H62.85V10.148h8.119zM79.54 23l-.936-3.06h-4.68L72.989 23h-2.934l4.536-12.906h3.33L82.475 23H79.54zm-1.584-5.346l-.936-2.988c-.06-.204-.138-.462-.234-.774s-.192-.63-.288-.954a20.75 20.75 0 01-.234-.846c-.06.24-.144.54-.252.9-.096.348-.192.684-.288 1.008-.084.312-.15.534-.198.666l-.918 2.988h3.348zM89.253 23V10.148h8.118v2.25h-5.4v2.682h1.08c1.212 0 2.202.168 2.97.504.78.336 1.356.798 1.728 1.386.372.588.558 1.26.558 2.016 0 1.272-.426 2.262-1.278 2.97-.84.696-2.184 1.044-4.032 1.044h-3.744zm2.718-2.232h.918c.828 0 1.476-.132 1.944-.396.48-.264.72-.726.72-1.386 0-.684-.258-1.134-.774-1.35-.516-.216-1.218-.324-2.106-.324h-.702v3.456zm12.576-7.794c1.32 0 2.328.288 3.024.864.708.564 1.062 1.434 1.062 2.61V23h-1.872l-.522-1.332h-.072c-.42.528-.864.912-1.332 1.152-.468.24-1.11.36-1.926.36-.876 0-1.602-.252-2.178-.756-.576-.516-.864-1.302-.864-2.358 0-1.044.366-1.812 1.098-2.304.732-.504 1.83-.78 3.294-.828l1.71-.054v-.432c0-.516-.138-.894-.414-1.134-.264-.24-.636-.36-1.116-.36-.48 0-.948.072-1.404.216-.456.132-.912.3-1.368.504l-.882-1.818a7.727 7.727 0 011.746-.648 8.584 8.584 0 012.016-.234zm1.422 5.472l-1.044.036c-.864.024-1.464.18-1.8.468-.336.288-.504.666-.504 1.134 0 .408.12.702.36.882.24.168.552.252.936.252.576 0 1.062-.168 1.458-.504.396-.348.594-.834.594-1.458v-.81zm8.092-5.274v3.78h3.744v-3.78h2.682V23h-2.682v-4.05h-3.744V23h-2.682v-9.828h2.682zm15.68 0h2.952l-3.888 4.716 4.23 5.112h-3.042l-4.014-4.986V23h-2.682v-9.828h2.682v4.77l3.762-4.77z" fill="#1F1E25"/><path d="M14.5 1H12L1 19.78h3.25l1.5-2.682L14.5 1z" fill="#2C36F2"/><path d="M2.5 23h21l-9-16.634L13 9.049l4.5 8.049L19 19.78H1L2.5 23z" fill="#2C36F2"/><path d="M19 19.78l-1.5-2.682H5.75l-1.5 2.683H19z" fill="#2C36F2"/><path d="M23.5 23l1.5-3.22L14.5 1 5.75 17.098H8.5l4.5-8.05 1.5-2.682L23.5 23z" fill="#2C36F2"/><path d="M13 9.049l-4.5 8.049h9L13 9.048z" fill="#2C36F2"/><path d="M23.5 23h-21L1 19.78M23.5 23l1.5-3.22L14.5 1m9 22l-9-16.634L13 9.049M14.5 1H12L1 19.78M14.5 1L5.75 17.098M1 19.78h3.25M13 9.049l-4.5 8.049m4.5-8.05l4.5 8.05m-9 0h9m-9 0H5.75m11.75 0L19 19.78H4.25m1.5-2.683l-1.5 2.683" stroke="#F6F7FF"/></svg>