<svg xmlns="http://www.w3.org/2000/svg" xmlns:xlink="http://www.w3.org/1999/xlink"><symbol id="icon-eye"><path d="M8.299 12l-1.963-.51.8-2.898a11.254 11.254 0 01-3.29-1.846L1.66 8.87.22 7.475l2.19-2.123A10.663 10.663 0 010 .354L2 0c.771 4.143 4.507 7.286 9 7.286 4.492 0 8.229-3.143 9-7.286l2 .353a10.662 10.662 0 01-2.409 5l2.188 2.122-1.438 1.395-2.188-2.124a11.254 11.254 0 01-3.29 1.846l.8 2.898-1.962.51-.8-2.898a11.6 11.6 0 01-3.801 0L8.299 12z" fill="#1F1E25"/></symbol><symbol id="icon-fb"><path d="M6 9.2h2.143L9 6H6V4.4c0-.824 0-1.6 1.714-1.6H9V.112A25.85 25.85 0 006.551 0c-2.327 0-3.98 1.326-3.98 3.76V6H0v3.2h2.571V16H6V9.2z" fill="#1F1E25"/></symbol><symbol id="icon-inst"><path d="M8 0c2.174 0 2.445.008 3.298.048.852.04 1.432.174 1.942.372a3.9 3.9 0 011.418.922c.406.4.721.884.922 1.418.198.51.332 1.09.372 1.942C15.99 5.555 16 5.826 16 8s-.008 2.445-.048 3.298c-.04.852-.174 1.432-.372 1.942a3.907 3.907 0 01-.922 1.418 3.94 3.94 0 01-1.418.922c-.51.198-1.09.332-1.942.372C10.445 15.99 10.174 16 8 16s-2.445-.008-3.298-.048c-.852-.04-1.432-.174-1.942-.372a3.911 3.911 0 01-1.418-.922A3.923 3.923 0 01.42 13.24c-.198-.51-.332-1.09-.372-1.942C.01 10.445 0 10.174 0 8s.008-2.445.048-3.298C.088 3.85.222 3.27.42 2.76c.2-.534.515-1.018.922-1.418.4-.407.884-.721 1.418-.922C3.27.222 3.85.088 4.702.048 5.555.01 5.826 0 8 0zm0 4a4 4 0 100 8 4 4 0 000-8zm5.2-.2a1 1 0 10-2 0 1 1 0 002 0zM8 5.6a2.4 2.4 0 110 4.8 2.4 2.4 0 010-4.8z" fill="#1F1E25"/></symbol><symbol id="icon-location"><path d="M25.753 24.334L15.5 34 5.247 24.334c-2.028-1.911-3.409-4.347-3.968-6.998-.56-2.652-.273-5.4.825-7.898C3.2 6.94 5.06 4.806 7.444 3.304A15.134 15.134 0 0115.5 1c2.868 0 5.671.802 8.056 2.304 2.384 1.502 4.243 3.636 5.34 6.134a12.943 12.943 0 01.825 7.898c-.56 2.651-1.94 5.087-3.968 6.998z" fill="#2C36F2"/><path d="M16.343 8.615h-1.405L8.752 18.728h1.828l.843-1.445 4.92-8.668z" fill="#2C36F2"/><path d="M9.596 20.462h11.808l-5.06-8.957-.844 1.444 2.53 4.334.844 1.445H8.752l.844 1.733z" fill="#2C36F2"/><path d="M18.874 18.728l-.844-1.445h-6.607l-.843 1.445h8.294z" fill="#2C36F2"/><path d="M21.404 20.462l.843-1.734-5.904-10.113-4.92 8.668h1.547l2.53-4.334.843-1.444 5.061 8.957z" fill="#2C36F2"/><path d="M15.5 12.95l-2.53 4.333h5.06L15.5 12.95z" fill="#2C36F2"/><path d="M21.404 20.462H9.596l-.844-1.734m12.652 1.733l.843-1.733-5.904-10.113m5.061 11.847l-5.06-8.957-.844 1.444m.843-4.334h-1.405L8.752 18.728m7.591-10.113l-4.92 8.668m-2.67 1.445h1.827m4.92-5.779l-2.53 4.334m2.53-4.334l2.53 4.334m-5.06 0h5.06m-5.06 0h-1.547m6.607 0l.844 1.445H10.58m.843-1.445l-.843 1.445m15.173 5.606L15.5 34 5.247 24.334c-2.028-1.911-3.409-4.347-3.968-6.998-.56-2.652-.273-5.4.825-7.898C3.2 6.94 5.06 4.806 7.444 3.304A15.134 15.134 0 0115.5 1c2.868 0 5.671.802 8.056 2.304 2.384 1.502 4.243 3.636 5.34 6.134a12.943 12.943 0 01.825 7.898c-.56 2.651-1.94 5.087-3.968 6.998z" stroke="#F6F7FF" stroke-width=".5"/></symbol><symbol id="icon-login"><path d="M1.556 10.4H3.11v4h9.333V1.6H3.111v4H1.556V.8c0-.212.081-.416.227-.566A.767.767 0 012.333 0h10.89c.205 0 .403.084.55.234.145.15.227.354.227.566v14.4a.812.812 0 01-.228.566.767.767 0 01-.55.234H2.333a.767.767 0 01-.55-.234.812.812 0 01-.227-.566v-4.8zm4.666-3.2V4.8l3.89 3.2-3.89 3.2V8.8H0V7.2h6.222z" fill="#1F1E25"/></symbol><symbol id="icon-logo"><path d="M35.48 18h-2.416V8.592h-2.8l-.208 1.6a56.898 56.898 0 01-.224 1.76 53.175 53.175 0 01-.24 1.68c-.085.523-.17.987-.256 1.392-.139.661-.325 1.227-.56 1.696-.224.47-.539.827-.944 1.072-.395.245-.912.368-1.552.368-.416 0-.8-.059-1.152-.176V16c.139.043.272.08.4.112.139.032.288.048.448.048.31 0 .544-.16.704-.48.17-.33.341-.944.512-1.84.064-.341.155-.875.272-1.6.117-.725.245-1.573.384-2.544.15-.981.288-2.021.416-3.12h7.216V18zm2.882-11.424h2.176v5.52c0 .267-.005.565-.016.896l-.032.976c-.01.31-.022.581-.032.816-.01.224-.021.379-.032.464h.048l5.28-8.672h2.896V18h-2.16v-5.488c0-.288.005-.603.016-.944.01-.352.021-.688.032-1.008.021-.32.037-.597.048-.832.021-.245.037-.405.048-.48h-.064L41.274 18h-2.912V6.576zm20.388 0v2h-4.8V18h-2.416V6.576h7.216zM66.37 18l-.833-2.72h-4.16L60.545 18h-2.608L61.97 6.528h2.96L68.979 18H66.37zm-1.409-4.752l-.832-2.656c-.053-.181-.122-.41-.208-.688a84.81 84.81 0 01-.255-.848 18.446 18.446 0 01-.208-.752c-.054.213-.128.48-.224.8-.086.31-.171.608-.257.896a8.192 8.192 0 01-.175.592l-.816 2.656h2.976zM75.002 18V6.576h7.217v2h-4.8v2.384h.96c1.077 0 1.957.15 2.64.448.693.299 1.205.71 1.535 1.232.331.523.496 1.12.496 1.792 0 1.13-.378 2.01-1.135 2.64-.747.619-1.942.928-3.585.928h-3.328zm2.416-1.984h.816c.737 0 1.313-.117 1.729-.352.426-.235.64-.645.64-1.232 0-.608-.23-1.008-.688-1.2-.46-.192-1.083-.288-1.873-.288h-.624v3.072zm11.18-6.928c1.173 0 2.069.256 2.688.768.629.501.944 1.275.944 2.32V18h-1.664l-.464-1.184h-.064c-.374.47-.768.81-1.184 1.024-.416.213-.987.32-1.712.32-.779 0-1.424-.224-1.936-.672-.512-.459-.768-1.157-.768-2.096 0-.928.325-1.61.976-2.048.65-.448 1.626-.693 2.928-.736l1.52-.048v-.384c0-.459-.123-.795-.368-1.008-.235-.213-.566-.32-.992-.32a4.12 4.12 0 00-1.248.192 9.278 9.278 0 00-1.216.448l-.784-1.616a6.87 6.87 0 011.552-.576 7.63 7.63 0 011.792-.208zm1.264 4.864l-.928.032c-.768.021-1.302.16-1.6.416-.299.256-.448.592-.448 1.008 0 .363.106.624.32.784.213.15.49.224.832.224.512 0 .944-.15 1.296-.448.352-.31.528-.741.528-1.296v-.72zm7.192-4.688v3.36h3.328v-3.36h2.384V18h-2.384v-3.6h-3.328V18H94.67V9.264h2.384zm13.938 0h2.624l-3.456 4.192L113.92 18h-2.704l-3.568-4.432V18h-2.384V9.264h2.384v4.24l3.344-4.24z" fill="#1F1E25"/><path d="M11.125 1H9.25L1 15.512h2.438l1.124-2.073L11.125 1z" fill="#2C36F2"/><path d="M2.125 18h15.75l-6.75-12.854L10 7.22l3.375 6.219 1.125 2.073H1L2.125 18z" fill="#2C36F2"/><path d="M14.5 15.512l-1.125-2.073H4.562l-1.125 2.073H14.5z" fill="#2C36F2"/><path d="M17.875 18L19 15.512 11.125 1 4.562 13.439h2.063L10 7.219l1.125-2.073L17.875 18z" fill="#2C36F2"/><path d="M10 7.22l-3.375 6.219h6.75L10 7.219z" fill="#2C36F2"/><path d="M17.875 18H2.125L1 15.512M17.875 18L19 15.512 11.125 1m6.75 17l-6.75-12.854L10 7.22M11.125 1H9.25L1 15.512M11.125 1L4.562 13.439M1 15.512h2.438M10 7.22l-3.375 6.219M10 7.219l3.375 6.22m-6.75 0h6.75m-6.75 0H4.562m8.813 0l1.125 2.073H3.437m1.126-2.073l-1.125 2.073" stroke="#F6F7FF"/></symbol><symbol id="icon-phone"><path d="M8.837 0H1.163C.523 0 0 .486 0 1.08v13.84C0 15.514.523 16 1.163 16h7.674c.64 0 1.163-.486 1.163-1.08V1.08C10 .487 9.477 0 8.837 0zM3.772.779h2.456c.077 0 .14.058.14.131 0 .072-.063.13-.14.13H3.772c-.077 0-.14-.058-.14-.13 0-.073.063-.131.14-.131zM5 15.459c-.321 0-.581-.241-.581-.54 0-.3.26-.54.581-.54.321 0 .581.24.581.54 0 .299-.26.54-.581.54zM9.19 14H.81V1.714h8.38V14z" fill="#1F1E25"/></symbol><symbol id="icon-tel"><path d="M16 11.928v3.143a.888.888 0 01-.828.887 14.3 14.3 0 01-.95.041C6.366 16 0 9.632 0 1.778c0-.246.013-.563.04-.951A.889.889 0 01.929 0H4.07a.444.444 0 01.443.4c.02.204.039.367.056.49a12.356 12.356 0 001.074 3.557c.085.178.03.39-.13.504L3.594 6.32a11.596 11.596 0 006.084 6.084l1.368-1.915a.41.41 0 01.51-.132 12.325 12.325 0 004.044 1.128.444.444 0 01.399.442z" fill="#1F1E25"/></symbol><symbol id="icon-twitter"><path d="M16 1.543c-.6.265-1.236.44-1.886.516A3.292 3.292 0 0015.558.244a6.564 6.564 0 01-2.085.796A3.283 3.283 0 007.88 4.032 9.325 9.325 0 011.114.604a3.28 3.28 0 001.016 4.38 3.273 3.273 0 01-1.487-.41v.04a3.281 3.281 0 002.633 3.218c-.484.13-.99.15-1.483.056a3.283 3.283 0 003.066 2.279A6.59 6.59 0 010 11.525 9.29 9.29 0 005.031 13c6.039 0 9.341-4.999 9.341-9.334 0-.141-.004-.284-.01-.424A6.667 6.667 0 0016 1.544z" fill="#1F1E25"/></symbol><symbol id="icon-youtube"><path d="M15.634 2.03C16 3.478 16 6.5 16 6.5s0 3.023-.366 4.47c-.203.8-.797 1.43-1.55 1.643C12.717 13 8 13 8 13s-4.714 0-6.084-.387c-.756-.216-1.35-.845-1.55-1.643C0 9.523 0 6.5 0 6.5s0-3.022.366-4.47c.203-.8.797-1.43 1.55-1.643C3.286 0 8 0 8 0s4.717 0 6.084.387c.756.216 1.35.845 1.55 1.643zM6.4 9.344L11.2 6.5 6.4 3.656v5.688z" fill="#1F1E25"/></symbol></svg>