<svg width="151" height="31" fill="none" xmlns="http://www.w3.org/2000/svg"><path d="M52.1 15h-3.02V3.24h-3.5l-.26 2a70.91 70.91 0 01-.28 2.2 66.072 66.072 0 01-.3 2.1 39.205 39.205 0 01-.32 1.74c-.173.827-.407 1.533-.7 2.12-.28.587-.673 1.033-1.18 1.34-.493.307-1.14.46-1.94.46-.52 0-1-.073-1.44-.22V12.5c.173.053.34.1.5.14.173.04.36.06.56.06.387 0 .68-.2.88-.6.213-.413.427-1.18.64-2.3a90.4 90.4 0 00.34-2c.147-.907.307-1.967.48-3.18.187-1.227.36-2.527.52-3.9h9.02V15zM55.702.72h2.72v6.9c0 .333-.006.707-.02 1.12l-.04 1.22c-.013.387-.026.727-.04 1.02-.013.28-.026.473-.04.58h.06l6.6-10.84h3.62V15h-2.7V8.14c0-.36.007-.753.02-1.18l.04-1.26c.027-.4.047-.747.06-1.04.027-.307.047-.507.06-.6h-.08L59.342 15h-3.64V.72zm25.485 0v2.5h-6V15h-3.02V.72h9.02zM90.712 15l-1.04-3.4h-5.2l-1.04 3.4h-3.26L85.212.66h3.7L93.972 15h-3.26zm-1.76-5.94l-1.04-3.32a76.767 76.767 0 00-.26-.86c-.107-.347-.213-.7-.32-1.06-.107-.36-.194-.673-.26-.94-.067.267-.16.6-.28 1-.107.387-.213.76-.32 1.12a10.24 10.24 0 01-.22.74l-1.02 3.32h3.72zM101.503 15V.72h9.02v2.5h-6V6.2h1.2c1.347 0 2.447.187 3.3.56.867.373 1.507.887 1.92 1.54.413.653.62 1.4.62 2.24 0 1.413-.473 2.513-1.42 3.3-.933.773-2.427 1.16-4.48 1.16h-4.16zm3.02-2.48h1.02c.92 0 1.64-.147 2.16-.44.533-.293.8-.807.8-1.54 0-.76-.287-1.26-.86-1.5s-1.353-.36-2.34-.36h-.78v3.84zm13.974-8.66c1.467 0 2.587.32 3.36.96.787.627 1.18 1.593 1.18 2.9V15h-2.08l-.58-1.48h-.08c-.467.587-.96 1.013-1.48 1.28-.52.267-1.233.4-2.14.4-.973 0-1.78-.28-2.42-.84-.64-.573-.96-1.447-.96-2.62 0-1.16.407-2.013 1.22-2.56.813-.56 2.033-.867 3.66-.92l1.9-.06v-.48c0-.573-.153-.993-.46-1.26-.293-.267-.707-.4-1.24-.4s-1.053.08-1.56.24c-.507.147-1.013.333-1.52.56l-.98-2.02a8.586 8.586 0 011.94-.72 9.54 9.54 0 012.24-.26zm1.58 6.08l-1.16.04c-.96.027-1.627.2-2 .52s-.56.74-.56 1.26c0 .453.133.78.4.98.267.187.613.28 1.04.28.64 0 1.18-.187 1.62-.56.44-.387.66-.927.66-1.62v-.9zm8.99-5.86v4.2h4.16v-4.2h2.98V15h-2.98v-4.5h-4.16V15h-2.98V4.08h2.98zm17.423 0h3.28l-4.32 5.24 4.7 5.68h-3.38l-4.46-5.54V15h-2.98V4.08h2.98v5.3l4.18-5.3zM43.922 21.66h1.084V28h-1.084v-4.623L40.998 28h-1.084v-6.34h1.084v4.63l2.924-4.63zM51.926 28h-1.084v-2.707H47.93V28h-1.09v-6.34h1.09v2.748h2.912V21.66h1.084V28zm6.457-5.46h-2.127V28h-1.084v-5.46h-2.086v-.88h5.297v.88zm3.217 5.577c-.86 0-1.559-.281-2.098-.844-.54-.566-.809-1.322-.809-2.267v-.2c0-.628.12-1.189.358-1.681a2.815 2.815 0 011.008-1.16 2.535 2.535 0 011.406-.422c.824 0 1.465.271 1.922.814.457.543.685 1.32.685 2.332v.452h-4.295c.016.625.198 1.13.545 1.517.352.383.797.574 1.336.574.383 0 .707-.078.973-.234.266-.156.498-.363.697-.621l.662.516c-.531.816-1.328 1.224-2.39 1.224zm-.135-5.683c-.438 0-.805.16-1.102.48-.297.316-.48.762-.55 1.336h3.175v-.082c-.031-.55-.18-.977-.445-1.277-.266-.305-.625-.457-1.078-.457zm9.222 2.466c0 .965-.22 1.743-.662 2.332-.441.59-1.039.885-1.793.885-.77 0-1.375-.244-1.816-.732v3.052h-1.084V21.66h.99l.053.703c.441-.547 1.055-.82 1.84-.82.762 0 1.363.287 1.804.861.446.575.668 1.373.668 2.397v.1zm-1.084-.123c0-.715-.152-1.279-.456-1.693-.305-.414-.723-.621-1.254-.621-.657 0-1.149.29-1.477.873v3.03c.324.577.82.866 1.488.866.52 0 .932-.205 1.237-.615.308-.414.462-1.027.462-1.84zM77.25 28h-1.084v-2.707h-2.912V28h-1.09v-6.34h1.09v2.748h2.912V21.66h1.084V28zm4.377.117c-.86 0-1.559-.281-2.098-.844-.539-.566-.808-1.322-.808-2.267v-.2c0-.628.119-1.189.357-1.681a2.815 2.815 0 011.008-1.16 2.536 2.536 0 011.406-.422c.824 0 1.465.271 1.922.814.457.543.686 1.32.686 2.332v.452h-4.295c.015.625.197 1.13.545 1.517.351.383.797.574 1.336.574.382 0 .707-.078.972-.234.266-.156.498-.363.698-.621l.662.516c-.532.816-1.329 1.224-2.391 1.224zm-.135-5.683c-.437 0-.805.16-1.101.48-.297.316-.48.762-.551 1.336h3.176v-.082c-.032-.55-.18-.977-.446-1.277-.265-.305-.625-.457-1.078-.457zm8.508.105h-2.127V28h-1.084v-5.46h-2.086v-.88H90v.88zm3.31 2.28h-2.859v-.885h2.86v.884zm3.844-2.796c.797 0 1.434.268 1.91.803.48.531.721 1.233.721 2.104v.1c0 .597-.115 1.132-.346 1.605-.23.468-.562.834-.996 1.095-.43.258-.925.387-1.488.387-.852 0-1.537-.283-2.057-.85-.52-.57-.779-1.333-.779-2.29v-.528c0-1.332.246-2.39.738-3.176.496-.785 1.227-1.263 2.192-1.435.547-.098.916-.217 1.107-.358a.68.68 0 00.287-.58h.891c0 .489-.111.87-.334 1.143-.219.273-.57.467-1.055.58l-.808.182c-.645.152-1.13.41-1.453.773-.32.36-.53.84-.627 1.442.574-.665 1.273-.997 2.097-.997zm-.21.891c-.532 0-.954.18-1.266.54-.313.355-.469.849-.469 1.482v.093c0 .68.156 1.219.469 1.617.316.395.742.592 1.277.592.54 0 .965-.199 1.277-.597.313-.399.47-.98.47-1.746 0-.598-.159-1.077-.475-1.436-.313-.363-.74-.545-1.284-.545zM104.917 28c-.063-.125-.113-.348-.152-.668-.504.523-1.106.785-1.805.785-.625 0-1.139-.176-1.541-.527a1.726 1.726 0 01-.598-1.348c0-.66.25-1.172.75-1.535.504-.367 1.211-.55 2.121-.55h1.055v-.499c0-.379-.113-.68-.34-.902-.226-.227-.56-.34-1.002-.34-.386 0-.711.098-.972.293-.262.195-.393.432-.393.709h-1.09c0-.316.111-.621.334-.914.227-.297.531-.531.914-.703a3.098 3.098 0 011.272-.258c.73 0 1.302.184 1.717.55.414.364.628.866.644 1.507v2.918c0 .582.074 1.044.223 1.388V28h-1.137zm-1.799-.826c.34 0 .662-.088.967-.264.305-.176.525-.404.662-.685v-1.301h-.85c-1.328 0-1.992.389-1.992 1.166 0 .34.114.605.34.797.227.191.518.287.873.287zm9.592.826h-1.084v-2.707h-2.912V28h-1.09v-6.34h1.09v2.748h2.912V21.66h1.084V28zm3.721-2.701h-.791V28h-1.09v-6.34h1.09v2.684h.709l2.132-2.684h1.313l-2.508 3.047 2.72 3.293h-1.377l-2.197-2.701z" fill="#1F1E25"/><path d="M17.875 1H14.75L1 24.049h4.063l1.875-3.293L17.874 1z" fill="#2C36F2"/><path d="M2.875 28h26.25L17.875 7.585 16 10.878l5.625 9.878L23.5 24.05H1L2.875 28z" fill="#2C36F2"/><path d="M23.5 24.049l-1.875-3.293H6.937L5.063 24.05H23.5z" fill="#2C36F2"/><path d="M29.125 28L31 24.049 17.875 1 6.937 20.756h3.438L16 10.878l1.875-3.293L29.125 28z" fill="#2C36F2"/><path d="M16 10.878l-5.625 9.878h11.25L16 10.878z" fill="#2C36F2"/><path d="M29.125 28H2.875L1 24.049M29.125 28L31 24.049 17.875 1m11.25 27L17.875 7.585 16 10.878M17.875 1H14.75L1 24.049M17.875 1L6.937 20.756M1 24.05h4.063M16 10.878l-5.625 9.878M16 10.878l5.625 9.878m-11.25 0h11.25m-11.25 0H6.937m14.688 0L23.5 24.05H5.062m1.875-3.293L5.063 24.05" stroke="#F6F7FF"/></svg>